HIERARCHY
ROOT Hips
{
	OFFSET 0.00000 0.00000 0.00000
	CHANNELS 6 Xposition Yposition Zposition Yrotation Zrotation Xrotation 
	JOINT Lumbar
	{
		OFFSET 0 0 0
		CHANNELS 3 Zrotation Xrotation Yrotation
		JOINT Neck
		{
			OFFSET 0.00 0.2701 0.00
			CHANNELS 3 Zrotation Xrotation Yrotation
			End Site
			{
				OFFSET 0.00 0.1379 0.00
			}
		}
		JOINT RightShoulder
		{
			OFFSET 0.0119 0.2289 0.1181
			CHANNELS 3 Zrotation Xrotation Yrotation
			JOINT RightElbow
			{
				OFFSET 0.00 -0.1475 0.00
				CHANNELS 2 Zrotation Yrotation
				JOINT RightWrist
				{
					OFFSET 0.00 -0.1605 0.00
					CHANNELS 2 Zrotation Xrotation
					End Site
					{
						OFFSET 0.0040 -0.1068 0.0006
					}
				}
			}
		}
		JOINT LeftShoulder
		{
			OFFSET 0.0119 0.2289 -0.1181
			CHANNELS 3 Zrotation Xrotation Yrotation
			JOINT LeftElbow
			{
				OFFSET 0.00 -0.1475 0.00
				CHANNELS 2 Zrotation Yrotation
				JOINT LeftWrist
				{
					OFFSET 0.00 -0.1605 0.00
					CHANNELS 2 Zrotation Xrotation
					End Site
					{
						OFFSET 0.0040 -0.1068 -0.0006
					}
				}
			}
		}
	}
	JOINT RightHip
	{
		OFFSET 0.0316 -0.0424 0.0458
		CHANNELS 3 Zrotation Xrotation Yrotation
		JOINT RightKnee
		{
			OFFSET 0.00 -0.2438 0.00
			CHANNELS 1 Zrotation
			JOINT RightAnkle
			{
				OFFSET 0.00 -0.2449 0.00
				CHANNELS 3 Zrotation Xrotation Yrotation
				End Site
				{
					OFFSET 0.1237 -0.0542 0.0051
				}
			}
		}
	}
	JOINT LeftHip
	{
		OFFSET 0.0316 -0.0424 -0.0458
		CHANNELS 3 Zrotation Xrotation Yrotation
		JOINT LeftKnee
		{
			OFFSET 0.00 -0.2438 0.00
			CHANNELS 1 Zrotation
			JOINT LeftAnkle
			{
				OFFSET 0.00 -0.2449 0.00
				CHANNELS 3 Zrotation Xrotation Yrotation
				End Site
				{
					OFFSET 0.1237 -0.0542 -0.0051
				}
			}
		}
	}
}
MOTION
Frames: 14
Frame Time: 0.02
-0 0.57926 0 180.68061 0 -2.94092 1.19131 2.10436 -0.62095 -20.95698 5.64598 -0.37139 -15.30042 -71.9398 -72.61841 20.43007 79.92896 -16.8106 -2.79097 -9.67539 63.34737 67.73246 21.43852 -78.4572 -25.72401 2.55893 -3.1192 1.50345 6.48487 -6.60023 -1.95343 -2.6881 -5.95514 -1.64599 4.3676 5.43028 -7.21618 5.1073 0.74998 -1.66844
2e-05 0.57926 -0.00016 180.67001 0 -2.94337 1.18832 2.09968 -0.6027 -20.99207 5.58391 -0.37132 -15.24356 -71.82374 -72.61795 20.44545 79.89698 -16.80467 -2.7975 -9.67027 63.46666 67.69152 21.43345 -78.37081 -25.73491 2.57552 -3.10485 1.52122 6.50503 -6.62261 -1.94353 -2.69291 -5.96127 -1.63755 4.3865 5.4521 -7.23282 5.11509 0.75206 -1.67874
3e-05 0.57926 -0.00033 180.65956 0 -2.9458 1.18536 2.09505 -0.58513 -21.02695 5.52182 -0.37071 -15.18736 -71.70813 -72.61788 20.46077 79.86547 -16.79874 -2.80386 -9.66563 63.58566 67.65096 21.42839 -78.28521 -25.74598 2.59202 -3.09058 1.53893 6.52509 -6.6449 -1.93367 -2.6977 -5.96743 -1.62912 4.40532 5.47359 -7.2494 5.1228 0.75415 -1.68891
5e-05 0.57926 -0.00049 180.64958 0 -2.94815 1.18256 2.09051 -0.56718 -21.06124 5.45994 -0.37073 -15.13317 -71.59293 -72.61982 20.4757 79.83677 -16.79235 -2.81002 -9.66238 63.70478 67.61133 21.42335 -78.20103 -25.75788 2.60849 -3.07667 1.55649 6.54457 -6.66662 -1.92406 -2.70237 -5.97339 -1.62076 4.42395 5.49412 -7.26571 5.1302 0.7562 -1.69873
7e-05 0.57925 -0.00066 180.63711 0 -2.95089 1.17902 2.08541 -0.54776 -21.09854 5.39801 -0.37072 -15.06822 -71.47525 -72.61163 20.49237 79.79466 -16.78794 -2.81772 -9.65118 63.82339 67.56656 21.41822 -78.1083 -25.76545 2.62529 -3.06112 1.57473 6.56664 -6.69083 -1.91334 -2.70758 -5.97994 -1.6122 4.44351 5.51992 -7.28322 5.13916 0.75831 -1.71053
9e-05 0.57925 -0.00082 180.6299 0 -2.95283 1.17699 2.08155 -0.53386 -21.12952 5.33551 -0.36854 -15.02615 -71.36316 -72.62455 20.50553 79.77993 -16.77965 -2.82186 -9.65719 63.94286 67.53285 21.41327 -78.0344 -25.78213 2.6413 -3.04888 1.59158 6.58353 -6.71007 -1.90486 -2.71171 -5.98555 -1.60397 4.46113 5.53446 -7.29831 5.14489 0.76038 -1.71804
0.00011 0.57925 -0.00095 180.63759 0 -2.95246 1.17972 2.08089 -0.5146 -21.14244 5.2761 -0.37954 -15.04802 -71.26201 -72.70107 20.50732 79.85222 -16.75731 -2.81846 -9.70943 64.06895 67.5284 21.40896 -78.00638 -25.82576 2.65624 -3.04728 1.60437 6.5833 -6.71289 -1.90351 -2.71233 -5.98578 -1.59718 4.47346 5.51784 -7.3057 5.14088 0.76171 -1.71444
0.00013 0.57925 -0.00108 180.65053 0 -2.9513 1.18387 2.08154 -0.50417 -21.14909 5.21535 -0.38532 -15.09286 -71.16721 -72.79807 20.50582 79.95043 -16.73155 -2.81116 -9.77931 64.19524 67.53531 21.40487 -77.99812 -25.87834 2.67025 -3.04878 1.6158 6.57828 -6.71114 -1.90428 -2.71196 -5.98547 -1.59062 4.48382 5.48985 -7.31081 5.13373 0.76311 -1.70641
0.00015 0.57924 -0.0012 180.66079 0 -2.95059 1.18703 2.08176 -0.50378 -21.15903 5.15184 -0.38039 -15.12671 -71.07233 -72.88228 20.50699 80.02904 -16.70959 -2.80401 -9.84207 64.31885 67.53789 21.40045 -77.98517 -25.92568 2.68394 -3.04786 1.62806 6.57744 -6.71331 -1.90345 -2.71243 -5.98736 -1.58359 4.49508 5.46708 -7.31764 5.12856 0.76492 -1.69991
0.00016 0.57924 -0.00134 180.67221 0 -2.94951 1.19171 2.08131 -0.44625 -21.16717 5.10182 -0.42866 -15.16292 -70.96566 -72.98095 20.50342 80.1394 -16.67852 -2.80326 -9.90115 64.45345 67.53708 21.39665 -77.95546 -25.97783 2.70059 -3.05108 1.63951 6.56854 -6.70792 -1.90522 -2.71128 -5.98141 -1.57811 4.50636 5.44407 -7.32166 5.12116 0.76494 -1.69538
0.00019 0.57924 -0.00146 180.68257 0 -2.949 1.19349 2.08254 -0.50712 -21.1775 5.02433 -0.36739 -15.19963 -70.88501 -73.05468 20.50865 80.19134 -16.66516 -2.78882 -9.97195 64.56511 67.54586 21.39205 -77.96367 -26.02225 2.71109 -3.04656 1.65223 6.57477 -6.71689 -1.90218 -2.71321 -5.99115 -1.56947 4.51709 5.41889 -7.33089 5.11754 0.76861 -1.6858
0.00023 0.57924 -0.00156 180.68776 0 -2.9504 1.18739 2.08816 -0.91591 -21.19622 4.86307 0.01677 -15.23226 -70.87489 -73.05151 20.54168 80.06209 -16.70543 -2.73265 -10.0719 64.61426 67.57995 21.3814 -78.08671 -26.04159 2.70276 -3.0186 1.6695 6.62872 -6.76907 -1.88448 -2.72456 -6.04867 -1.55192 4.52701 5.39037 -7.35584 5.12606 0.78315 -1.66226
0.00027 0.57923 -0.00165 180.69183 0 -2.95237 1.17822 2.09541 -1.43929 -21.21727 4.67569 0.50706 -15.26439 -70.89067 -73.02288 20.58325 79.87553 -16.76293 -2.66371 -10.18274 64.6401 67.62301 21.37062 -78.24477 -26.05309 2.68859 -2.98297 1.68793 6.69731 -6.83536 -1.86206 -2.73892 -6.12124 -1.53122 4.53636 5.36012 -7.38595 5.13833 0.8012 -1.63396
0.00031 0.57923 -0.00175 180.69714 0 -2.95397 1.17016 2.10183 -1.89493 -21.23668 4.50574 0.9344 -15.29693 -70.89444 -73.00818 20.6191 79.72427 -16.80995 -2.60387 -10.28803 64.67613 67.66097 21.36242 -78.37656 -26.06921 2.67856 -2.95169 1.70535 6.7559 -6.8936 -1.84233 -2.75148 -6.184 -1.51202 4.54581 5.33068 -7.4132 5.14828 0.81708 -1.60858
